<svg xmlns="http://www.w3.org/2000/svg" xmlns:xlink="http://www.w3.org/1999/xlink" version="1.1" x="0px" y="0px" viewBox="0 0 512 640" style="enable-background:new 0 0 512 512;" xml:space="preserve"><path d="M205.2,204.5v-96.1c0-3.3,2.7-6,6-6h29.2c3.3,0,6,2.7,6,6v16h67.4c41,0,74.5,33.5,74.5,74.5v67.5h14.5c3.3,0,6,2.7,6,6v29.2  c0,3.3-2.7,6-6,6h-96.1v96.1c0,3.3-2.7,6-6,6h-29.2c-3.3,0-6-2.7-6-6v-16h-67.4c-41,0-74.5-33.5-74.5-74.5v-67.4h-14.5  c-3.3,0-6-2.7-6-6v-29.2c0-3.3,2.7-6,6-6H205.2z M246.4,194.5v16c0,3.3-2.7,6-6,6h-23.2v23.2c0,3.3-2.7,6-6,6h-14.4V309  c0,4.7,3.9,8.5,8.5,8.5h60.2v-16c0-3.3,2.7-6,6-6h23.2v-23.2c0-3.3,2.7-6,6-6h14.5V203c0-4.7-3.9-8.5-8.6-8.5H246.4z M217.2,114.4  v90.1h17.1v-90.1H217.2z M294.7,397.6v-90.1h-17.1v90.1H294.7z M306.7,295.5h90.1v-17.1h-90.1V295.5z M205.2,216.5h-90.1v17.2h90.1  V216.5z M117.5,88c-2.5,2.2-6.3,1.9-8.4-0.7c-2.2-2.5-1.9-6.3,0.7-8.4c74.2-63.4,181.2-71.8,264.4-20.5c32.8,20.2,60,48.5,78.8,82.1  c0.1-3.4,2.8-6,6.1-5.9c3.3,0.1,5.9,2.8,5.8,6.1l-0.6,23.4c-0.1,4.7-5.4,7.4-9.2,4.9l-20.6-13.4c-2.7-1.8-3.5-5.5-1.8-8.3  c1.8-2.8,5.5-3.5,8.3-1.8l1.7,1.1C405.2,79.6,334.4,37,256,37C204.6,37,155.9,55.2,117.5,88L117.5,88z M253.9,476  c2.6,1.7,3.5,5.2,1.9,8c-1.6,2.9-5.3,3.9-8.2,2.2l-20.9-12c-4.2-2.4-3.9-8.4,0.3-10.5v0l21.9-11.1c2.9-1.5,6.5-0.3,8.1,2.7  c1.5,2.9,0.3,6.5-2.7,8l-1.7,0.9c0.9,0,2,0,3.4,0c132.9,0,233.1-120,210.3-250.5c-0.6-3.3,1.6-6.4,4.9-6.9c3.3-0.6,6.4,1.6,6.9,4.9  c24.1,137.8-81.8,264.6-222.2,264.6C255.5,476.1,254.8,476.1,253.9,476L253.9,476z M60.7,136.5c-2.9,1.6-6.5,0.7-8.2-2.2  c-1.6-2.8-0.7-6.5,2.2-8.1L77,113.3c4.1-2.4,9.2,0.8,9,5.5l0,0l-1.3,24.6c-0.2,3.3-3,5.8-6.3,5.7c-3.3-0.2-5.8-3-5.7-6.3l0.1-2  c-43,71.5-40.1,162.1,7.2,230.8c24.4,35.4,59.2,63,99.9,78.6c3.1,1.2,4.6,4.6,3.5,7.7c-1.2,3.1-4.6,4.6-7.7,3.5  C89,428.3,30.5,344.8,30.5,250.5c0-40.7,10.9-80.1,31.3-114.6L60.7,136.5z"/><text x="0" y="527" fill="#000000" font-size="5px" font-weight="bold" font-family="'Helvetica Neue', Helvetica, Arial-Unicode, Arial, Sans-serif">Created by afian roc</text><text x="0" y="532" fill="#000000" font-size="5px" font-weight="bold" font-family="'Helvetica Neue', Helvetica, Arial-Unicode, Arial, Sans-serif">from the Noun Project</text></svg>
